<svg xmlns="http://www.w3.org/2000/svg" xmlns:xlink="http://www.w3.org/1999/xlink" width="34" height="34" viewBox="0 0 34 34">
    <defs>
        <filter id="prefix__a" width="126.8%" height="126.8%" x="-13.4%" y="-9.8%" filterUnits="objectBoundingBox">
            <feMorphology in="SourceAlpha" operator="dilate" radius=".25" result="shadowSpreadOuter1"/>
            <feOffset dy="1" in="shadowSpreadOuter1" result="shadowOffsetOuter1"/>
            <feGaussianBlur in="shadowOffsetOuter1" result="shadowBlurOuter1" stdDeviation="1"/>
            <feComposite in="shadowBlurOuter1" in2="SourceAlpha" operator="out" result="shadowBlurOuter1"/>
            <feColorMatrix in="shadowBlurOuter1" values="0 0 0 0 0.11372549 0 0 0 0 0.145098039 0 0 0 0 0.176470588 0 0 0 0.06 0"/>
        </filter>
        <rect id="prefix__b" width="28" height="28" x="0" y="0" rx="4"/>
        <path id="prefix__c" d="M0 0.216L16.678 0.216 16.678 0.856 0 0.856z"/>
    </defs>
    <g fill="none" fill-rule="evenodd" transform="translate(3 2)">
        <use fill="#000" filter="url(#prefix__a)" xlink:href="#prefix__b"/>
        <use fill="#FFF" stroke="#DDE5ED" stroke-width=".5" xlink:href="#prefix__b"/>
        <g>
            <path d="M0 0.4H20V19.599999999999998H0z" transform="translate(4 4)"/>
            <g>
                <g transform="translate(4 4) translate(1.667 2.4) translate(.833)">
                    <rect width="5.387" height="5.12" x=".64" y=".64" fill="#FFF" stroke="#506D85" stroke-width="1.28" rx=".8"/>
                    <rect width="1.667" height="1.6" x="2.5" y="2.4" fill="#506D85" rx=".16"/>
                </g>
                <g transform="translate(4 4) translate(1.667 2.4) translate(.833 8.8)">
                    <rect width="5.387" height="5.12" x=".64" y=".64" fill="#FFF" stroke="#506D85" stroke-width="1.28" rx=".8"/>
                    <rect width="1.667" height="1.6" x="2.5" y="2.4" fill="#506D85" rx=".16"/>
                </g>
                <g transform="translate(4 4) translate(1.667 2.4) translate(10)">
                    <rect width="5.387" height="5.12" x=".64" y=".64" fill="#FFF" stroke="#506D85" stroke-width="1.28" rx=".8"/>
                    <rect width="1.667" height="1.6" x="2.5" y="2.4" fill="#506D85" rx=".16"/>
                </g>
                <path fill="#506D85" d="M15.502 11.518L15.502 13.44 14.157 13.444 14.168 14.725 16.836 14.722 16.836 11.517zM10.17 14.723L11.503 14.723 11.503 13.443 10.17 13.443zM10.167 10.878L11.501 10.878 11.501 9.598 10.167 9.598zM11.502 12.799L13.502 12.799 13.502 10.879 11.502 10.879zM15.5 10.878L14.167 10.879 14.167 8.96 15.5 8.96 15.501 9.698z" transform="translate(4 4) translate(1.667 2.4)"/>
                <g transform="translate(4 4) translate(1.667 2.4) translate(0 7.045)"/>
            </g>
        </g>
    </g>
</svg>
